<?xml version="1.0" encoding="UTF-8" standalone="no"?>
<!DOCTYPE svg PUBLIC "-//W3C//DTD SVG 1.1//EN"
 "http://www.w3.org/Graphics/SVG/1.1/DTD/svg11.dtd">
<!-- Generated by graphviz version 2.43.0 (0)
 -->
<!-- Title: %3 Pages: 1 -->
<svg width="632pt" height="404pt"
 viewBox="0.00 0.00 631.84 404.00" xmlns="http://www.w3.org/2000/svg" xmlns:xlink="http://www.w3.org/1999/xlink">
<g id="graph0" class="graph" transform="scale(1 1) rotate(0) translate(4 400)">
<title>%3</title>
<polygon fill="white" stroke="transparent" points="-4,4 -4,-400 627.84,-400 627.84,4 -4,4"/>
<!-- Uninitialized -->
<g id="node1" class="node">
<title>Uninitialized</title>
<ellipse fill="none" stroke="black" cx="371.45" cy="-378" rx="70.39" ry="18"/>
<text text-anchor="middle" x="371.45" y="-374.3" font-family="Times,serif" font-size="14.00">Uninitialized</text>
</g>
<!-- Initialized -->
<g id="node2" class="node">
<title>Initialized</title>
<ellipse fill="none" stroke="black" cx="371.45" cy="-306" rx="57.39" ry="18"/>
<text text-anchor="middle" x="371.45" y="-302.3" font-family="Times,serif" font-size="14.00">Initialized</text>
</g>
<!-- Uninitialized&#45;&gt;Initialized -->
<g id="edge1" class="edge">
<title>Uninitialized&#45;&gt;Initialized</title>
<path fill="none" stroke="black" d="M371.45,-359.7C371.45,-351.98 371.45,-342.71 371.45,-334.11"/>
<polygon fill="black" stroke="black" points="374.95,-334.1 371.45,-324.1 367.95,-334.1 374.95,-334.1"/>
</g>
<!-- Runnable -->
<g id="node3" class="node">
<title>Runnable</title>
<ellipse fill="none" stroke="black" cx="315.45" cy="-234" rx="54.69" ry="18"/>
<text text-anchor="middle" x="315.45" y="-230.3" font-family="Times,serif" font-size="14.00">Runnable</text>
</g>
<!-- Initialized&#45;&gt;Runnable -->
<g id="edge2" class="edge">
<title>Initialized&#45;&gt;Runnable</title>
<path fill="none" stroke="black" d="M358.17,-288.41C351.27,-279.78 342.7,-269.06 335.04,-259.5"/>
<polygon fill="black" stroke="black" points="337.6,-257.09 328.62,-251.47 332.14,-261.47 337.6,-257.09"/>
</g>
<!-- Error -->
<g id="node4" class="node">
<title>Error</title>
<ellipse fill="none" stroke="black" cx="587.45" cy="-90" rx="36.29" ry="18"/>
<text text-anchor="middle" x="587.45" y="-86.3" font-family="Times,serif" font-size="14.00">Error</text>
</g>
<!-- Initialized&#45;&gt;Error -->
<g id="edge3" class="edge">
<title>Initialized&#45;&gt;Error</title>
<path fill="none" stroke="black" d="M388.04,-288.56C426.34,-250.62 520.98,-156.85 564.67,-113.56"/>
<polygon fill="black" stroke="black" points="567.33,-115.86 571.97,-106.33 562.4,-110.89 567.33,-115.86"/>
</g>
<!-- Running_Kernel -->
<g id="node7" class="node">
<title>Running_Kernel</title>
<ellipse fill="none" stroke="black" cx="315.45" cy="-162" rx="84.49" ry="18"/>
<text text-anchor="middle" x="315.45" y="-158.3" font-family="Times,serif" font-size="14.00">Running_Kernel</text>
</g>
<!-- Runnable&#45;&gt;Running_Kernel -->
<g id="edge4" class="edge">
<title>Runnable&#45;&gt;Running_Kernel</title>
<path fill="none" stroke="black" d="M315.45,-215.7C315.45,-207.98 315.45,-198.71 315.45,-190.11"/>
<polygon fill="black" stroke="black" points="318.95,-190.1 315.45,-180.1 311.95,-190.1 318.95,-190.1"/>
</g>
<!-- Running_User -->
<g id="node5" class="node">
<title>Running_User</title>
<ellipse fill="none" stroke="black" cx="315.45" cy="-90" rx="76.89" ry="18"/>
<text text-anchor="middle" x="315.45" y="-86.3" font-family="Times,serif" font-size="14.00">Running_User</text>
</g>
<!-- Running_User&#45;&gt;Running_Kernel -->
<g id="edge5" class="edge">
<title>Running_User&#45;&gt;Running_Kernel</title>
<path fill="none" stroke="black" d="M321.34,-108.1C322.15,-115.79 322.38,-125.05 322.05,-133.67"/>
<polygon fill="black" stroke="black" points="318.55,-133.48 321.36,-143.7 325.54,-133.96 318.55,-133.48"/>
</g>
<!-- Preempted -->
<g id="node6" class="node">
<title>Preempted</title>
<ellipse fill="none" stroke="black" cx="471.45" cy="-90" rx="61.99" ry="18"/>
<text text-anchor="middle" x="471.45" y="-86.3" font-family="Times,serif" font-size="14.00">Preempted</text>
</g>
<!-- Preempted&#45;&gt;Running_Kernel -->
<g id="edge6" class="edge">
<title>Preempted&#45;&gt;Running_Kernel</title>
<path fill="none" stroke="black" d="M443.44,-106.11C421.31,-116.62 390.07,-130.7 363.94,-141.97"/>
<polygon fill="black" stroke="black" points="362.38,-138.83 354.57,-145.98 365.14,-145.26 362.38,-138.83"/>
</g>
<!-- Running_Kernel&#45;&gt;Error -->
<g id="edge7" class="edge">
<title>Running_Kernel&#45;&gt;Error</title>
<path fill="none" stroke="black" d="M375.28,-149.28C421.39,-139.71 486.5,-125.02 542.45,-108 545.05,-107.21 547.73,-106.34 550.41,-105.43"/>
<polygon fill="black" stroke="black" points="551.79,-108.66 560.04,-102.01 549.44,-102.06 551.79,-108.66"/>
</g>
<!-- Running_Kernel&#45;&gt;Running_User -->
<g id="edge8" class="edge">
<title>Running_Kernel&#45;&gt;Running_User</title>
<path fill="none" stroke="black" d="M309.53,-143.7C308.73,-135.98 308.51,-126.71 308.85,-118.11"/>
<polygon fill="black" stroke="black" points="312.34,-118.32 309.55,-108.1 305.36,-117.84 312.34,-118.32"/>
</g>
<!-- Running_Kernel&#45;&gt;Preempted -->
<g id="edge9" class="edge">
<title>Running_Kernel&#45;&gt;Preempted</title>
<path fill="none" stroke="black" d="M345.08,-145.12C368.01,-134.27 400,-119.88 426.11,-108.67"/>
<polygon fill="black" stroke="black" points="427.61,-111.84 435.44,-104.7 424.87,-105.4 427.61,-111.84"/>
</g>
<!-- Blocked -->
<g id="node8" class="node">
<title>Blocked</title>
<ellipse fill="none" stroke="black" cx="47.45" cy="-90" rx="47.39" ry="18"/>
<text text-anchor="middle" x="47.45" y="-86.3" font-family="Times,serif" font-size="14.00">Blocked</text>
</g>
<!-- Running_Kernel&#45;&gt;Blocked -->
<g id="edge10" class="edge">
<title>Running_Kernel&#45;&gt;Blocked</title>
<path fill="none" stroke="black" d="M260.79,-148.13C217.86,-137.82 156.65,-122.72 103.45,-108 99.91,-107.02 96.25,-105.98 92.59,-104.91"/>
<polygon fill="black" stroke="black" points="93.5,-101.53 82.92,-102.06 91.52,-108.25 93.5,-101.53"/>
</g>
<!-- Returned -->
<g id="node9" class="node">
<title>Returned</title>
<ellipse fill="none" stroke="black" cx="166.45" cy="-90" rx="53.89" ry="18"/>
<text text-anchor="middle" x="166.45" y="-86.3" font-family="Times,serif" font-size="14.00">Returned</text>
</g>
<!-- Running_Kernel&#45;&gt;Returned -->
<g id="edge11" class="edge">
<title>Running_Kernel&#45;&gt;Returned</title>
<path fill="none" stroke="black" d="M282.01,-145.29C259.43,-134.69 229.55,-120.65 205.82,-109.5"/>
<polygon fill="black" stroke="black" points="207.27,-106.31 196.73,-105.23 204.3,-112.65 207.27,-106.31"/>
</g>
<!-- Blocked&#45;&gt;Runnable -->
<g id="edge13" class="edge">
<title>Blocked&#45;&gt;Runnable</title>
<path fill="none" stroke="black" d="M74.17,-105.16C122.41,-130.72 224.08,-184.59 278.77,-213.57"/>
<polygon fill="black" stroke="black" points="277.3,-216.75 287.77,-218.34 280.58,-210.56 277.3,-216.75"/>
</g>
<!-- Complete -->
<g id="node10" class="node">
<title>Complete</title>
<ellipse fill="none" stroke="black" cx="166.45" cy="-18" rx="55.49" ry="18"/>
<text text-anchor="middle" x="166.45" y="-14.3" font-family="Times,serif" font-size="14.00">Complete</text>
</g>
<!-- Returned&#45;&gt;Complete -->
<g id="edge12" class="edge">
<title>Returned&#45;&gt;Complete</title>
<path fill="none" stroke="black" d="M166.45,-71.7C166.45,-63.98 166.45,-54.71 166.45,-46.11"/>
<polygon fill="black" stroke="black" points="169.95,-46.1 166.45,-36.1 162.95,-46.1 169.95,-46.1"/>
</g>
</g>
</svg>
