<?xml version="1.0" encoding="UTF-8" standalone="no"?>
<!DOCTYPE svg PUBLIC "-//W3C//DTD SVG 1.1//EN"
 "http://www.w3.org/Graphics/SVG/1.1/DTD/svg11.dtd">
<!-- Generated by graphviz version 2.43.0 (0)
 -->
<!-- Title: %3 Pages: 1 -->
<svg width="650pt" height="437pt"
 viewBox="0.00 0.00 649.79 437.00" xmlns="http://www.w3.org/2000/svg" xmlns:xlink="http://www.w3.org/1999/xlink">
<g id="graph0" class="graph" transform="scale(1 1) rotate(0) translate(4 433)">
<title>%3</title>
<polygon fill="white" stroke="transparent" points="-4,4 -4,-433 645.79,-433 645.79,4 -4,4"/>
<!-- Uninitialized -->
<g id="node1" class="node">
<title>Uninitialized</title>
<ellipse fill="none" stroke="black" cx="70.19" cy="-411" rx="70.39" ry="18"/>
<text text-anchor="middle" x="70.19" y="-407.3" font-family="Times,serif" font-size="14.00">Uninitialized</text>
</g>
<!-- Initialized -->
<g id="node2" class="node">
<title>Initialized</title>
<ellipse fill="none" stroke="black" cx="70.19" cy="-338" rx="57.39" ry="18"/>
<text text-anchor="middle" x="70.19" y="-334.3" font-family="Times,serif" font-size="14.00">Initialized</text>
</g>
<!-- Uninitialized&#45;&gt;Initialized -->
<g id="edge1" class="edge">
<title>Uninitialized&#45;&gt;Initialized</title>
<path fill="none" stroke="black" d="M70.19,-392.81C70.19,-384.79 70.19,-375.05 70.19,-366.07"/>
<polygon fill="black" stroke="black" points="73.69,-366.03 70.19,-356.03 66.69,-366.03 73.69,-366.03"/>
</g>
<!-- Runnable -->
<g id="node3" class="node">
<title>Runnable</title>
<ellipse fill="none" stroke="black" cx="266.19" cy="-265" rx="54.69" ry="18"/>
<text text-anchor="middle" x="266.19" y="-261.3" font-family="Times,serif" font-size="14.00">Runnable</text>
</g>
<!-- Initialized&#45;&gt;Runnable -->
<g id="edge2" class="edge">
<title>Initialized&#45;&gt;Runnable</title>
<path fill="none" stroke="black" d="M106.14,-323.98C138.57,-312.23 186.39,-294.91 221.32,-282.26"/>
<polygon fill="black" stroke="black" points="222.59,-285.52 230.8,-278.82 220.21,-278.94 222.59,-285.52"/>
</g>
<!-- Error -->
<g id="node4" class="node">
<title>Error</title>
<ellipse fill="none" stroke="black" cx="52.19" cy="-105" rx="36.29" ry="18"/>
<text text-anchor="middle" x="52.19" y="-101.3" font-family="Times,serif" font-size="14.00">Error</text>
</g>
<!-- Initialized&#45;&gt;Error -->
<g id="edge3" class="edge">
<title>Initialized&#45;&gt;Error</title>
<path fill="none" stroke="black" d="M68.84,-319.64C65.73,-279.74 58.06,-181.27 54.32,-133.24"/>
<polygon fill="black" stroke="black" points="57.8,-132.95 53.54,-123.25 50.83,-133.49 57.8,-132.95"/>
</g>
<!-- Running_Sys -->
<g id="node5" class="node">
<title>Running_Sys</title>
<ellipse fill="none" stroke="black" cx="266.19" cy="-192" rx="70.69" ry="18"/>
<text text-anchor="middle" x="266.19" y="-188.3" font-family="Times,serif" font-size="14.00">Running_Sys</text>
</g>
<!-- Runnable&#45;&gt;Running_Sys -->
<g id="edge4" class="edge">
<title>Runnable&#45;&gt;Running_Sys</title>
<path fill="none" stroke="black" d="M266.19,-246.81C266.19,-238.79 266.19,-229.05 266.19,-220.07"/>
<polygon fill="black" stroke="black" points="269.69,-220.03 266.19,-210.03 262.69,-220.03 269.69,-220.03"/>
</g>
<!-- Running_Sys&#45;&gt;Error -->
<g id="edge7" class="edge">
<title>Running_Sys&#45;&gt;Error</title>
<path fill="none" stroke="black" d="M202.68,-183.96C173.38,-178.94 138.83,-170.41 110.19,-156 96.75,-149.24 83.86,-138.69 73.66,-129.01"/>
<polygon fill="black" stroke="black" points="76,-126.4 66.42,-121.87 71.08,-131.38 76,-126.4"/>
</g>
<!-- Running_User -->
<g id="node6" class="node">
<title>Running_User</title>
<ellipse fill="none" stroke="black" cx="226.19" cy="-18" rx="76.89" ry="18"/>
<text text-anchor="middle" x="226.19" y="-14.3" font-family="Times,serif" font-size="14.00">Running_User</text>
</g>
<!-- Running_Sys&#45;&gt;Running_User -->
<g id="edge9" class="edge">
<title>Running_Sys&#45;&gt;Running_User</title>
<path fill="none" stroke="black" d="M256.46,-174C249.29,-160.59 239.98,-141.19 235.19,-123 228.52,-97.63 226.52,-67.69 226.04,-46.47"/>
<polygon fill="black" stroke="black" points="229.53,-46.19 225.91,-36.24 222.53,-46.28 229.53,-46.19"/>
<text text-anchor="middle" x="258.19" y="-101.3" font-family="Times,serif" font-size="14.00">return</text>
</g>
<!-- Asleep -->
<g id="node7" class="node">
<title>Asleep</title>
<ellipse fill="none" stroke="black" cx="600.19" cy="-105" rx="41.69" ry="18"/>
<text text-anchor="middle" x="600.19" y="-101.3" font-family="Times,serif" font-size="14.00">Asleep</text>
</g>
<!-- Running_Sys&#45;&gt;Asleep -->
<g id="edge6" class="edge">
<title>Running_Sys&#45;&gt;Asleep</title>
<path fill="none" stroke="black" d="M318.7,-179.8C375.79,-167.3 469.52,-145.8 549.19,-123 552.38,-122.09 555.66,-121.1 558.95,-120.08"/>
<polygon fill="black" stroke="black" points="560.31,-123.32 568.77,-116.95 558.18,-116.65 560.31,-123.32"/>
<text text-anchor="middle" x="499.19" y="-144.8" font-family="Times,serif" font-size="14.00">sleep</text>
</g>
<!-- Returned -->
<g id="node8" class="node">
<title>Returned</title>
<ellipse fill="none" stroke="black" cx="486.19" cy="-105" rx="53.89" ry="18"/>
<text text-anchor="middle" x="486.19" y="-101.3" font-family="Times,serif" font-size="14.00">Returned</text>
</g>
<!-- Running_Sys&#45;&gt;Returned -->
<g id="edge8" class="edge">
<title>Running_Sys&#45;&gt;Returned</title>
<path fill="none" stroke="black" d="M312.74,-178.34C333.61,-172.25 358.38,-164.45 380.19,-156 403.62,-146.93 429.1,-134.98 449.21,-125.04"/>
<polygon fill="black" stroke="black" points="450.95,-128.09 458.33,-120.49 447.82,-121.82 450.95,-128.09"/>
</g>
<!-- Preempted -->
<g id="node9" class="node">
<title>Preempted</title>
<ellipse fill="none" stroke="black" cx="352.19" cy="-105" rx="61.99" ry="18"/>
<text text-anchor="middle" x="352.19" y="-101.3" font-family="Times,serif" font-size="14.00">Preempted</text>
</g>
<!-- Running_Sys&#45;&gt;Preempted -->
<g id="edge10" class="edge">
<title>Running_Sys&#45;&gt;Preempted</title>
<path fill="none" stroke="black" d="M283.18,-174.21C296.11,-161.43 314.05,-143.7 328.4,-129.52"/>
<polygon fill="black" stroke="black" points="330.88,-131.99 335.53,-122.47 325.96,-127.01 330.88,-131.99"/>
<text text-anchor="middle" x="345.69" y="-144.8" font-family="Times,serif" font-size="14.00">preempt</text>
</g>
<!-- Running_User&#45;&gt;Running_Sys -->
<g id="edge5" class="edge">
<title>Running_User&#45;&gt;Running_Sys</title>
<path fill="none" stroke="black" d="M196.06,-34.66C163.08,-53.98 117.48,-88.54 138.19,-123 153.49,-148.45 181.89,-164.89 208.05,-175.21"/>
<polygon fill="black" stroke="black" points="206.97,-178.54 217.56,-178.74 209.4,-171.98 206.97,-178.54"/>
<text text-anchor="middle" x="171.19" y="-101.3" font-family="Times,serif" font-size="14.00">interrupt</text>
</g>
<!-- Asleep&#45;&gt;Runnable -->
<g id="edge13" class="edge">
<title>Asleep&#45;&gt;Runnable</title>
<path fill="none" stroke="black" d="M579.26,-120.81C563.89,-131.34 542.26,-145.43 522.19,-156 450.82,-193.58 363.46,-228.15 311.45,-247.6"/>
<polygon fill="black" stroke="black" points="310,-244.41 301.85,-251.17 312.44,-250.97 310,-244.41"/>
<text text-anchor="middle" x="512.69" y="-188.3" font-family="Times,serif" font-size="14.00">wakeup</text>
</g>
<!-- Complete -->
<g id="node10" class="node">
<title>Complete</title>
<ellipse fill="none" stroke="black" cx="486.19" cy="-18" rx="55.49" ry="18"/>
<text text-anchor="middle" x="486.19" y="-14.3" font-family="Times,serif" font-size="14.00">Complete</text>
</g>
<!-- Returned&#45;&gt;Complete -->
<g id="edge12" class="edge">
<title>Returned&#45;&gt;Complete</title>
<path fill="none" stroke="black" d="M486.19,-86.8C486.19,-75.16 486.19,-59.55 486.19,-46.24"/>
<polygon fill="black" stroke="black" points="489.69,-46.18 486.19,-36.18 482.69,-46.18 489.69,-46.18"/>
<text text-anchor="middle" x="530.69" y="-57.8" font-family="Times,serif" font-size="14.00">exit_success</text>
</g>
<!-- Preempted&#45;&gt;Running_User -->
<g id="edge11" class="edge">
<title>Preempted&#45;&gt;Running_User</title>
<path fill="none" stroke="black" d="M328.79,-88.21C309.06,-74.9 280.62,-55.72 258.69,-40.92"/>
<polygon fill="black" stroke="black" points="260.58,-37.97 250.33,-35.28 256.66,-43.78 260.58,-37.97"/>
</g>
</g>
</svg>
